<?xml version="1.0"?><svg version="1.2" baseProfile="tiny-ps" viewBox="0 0 300 300" xmlns="http://www.w3.org/2000/svg" xmlns:xlink="http://www.w3.org/1999/xlink"><title>Grouvex Studios</title><g><g fill="#ddd6d2" transform="matrix(.1 0 0 -.1 0 300)"><path d="M1650 2929c-30-4-82-17-114-28-74-26-97-26-199 1l-82 22h-190l-80-23-80-22-65-36c-74-40-136-88-199-153-89-93-130-170-201-381l-42-126-89-83c-50-45-114-113-144-150l-55-67-34-75-35-74-17-74-17-74 6-111 5-110 16-60c22-82 69-174 127-252l50-65 10-82c17-139 47-221 120-330 80-119 180-204 311-266l62-30 74-16 75-17 121 6c66 4 162 9 211 13l91 7 72-37c113-57 285-125 370-146l77-20h180l62 15c239 56 452 250 534 485l26 75 49 35c27 19 85 71 129 115l80 80 37 70c20 39 47 104 59 145l24 75v135l-1 135-27 80-26 80-45 76c-24 41-80 122-123 179-43 56-96 128-119 159l-40 56-43 120c-146 409-303 609-550 704l-76 29-72 11c-81 12-132 12-213 0z"/></g><g fill="#1bdeb3" transform="matrix(.1 0 0 -.1 0 300)"><path d="m1665 2929-70-7-59-21c-70-25-106-26-172-6-27 9-91 19-143 24l-94 8-71-12c-165-29-292-98-415-225-89-93-130-170-201-382l-42-127-90-82c-49-45-114-112-144-149l-54-67-34-75-35-74-17-74-17-74 6-111 5-110 16-60c22-82 69-174 127-252l50-65 10-82c17-139 47-221 120-330 80-119 180-204 311-266l62-30 74-16 75-17 121 6c66 4 162 9 211 13l91 7 72-37c113-57 285-125 370-146l77-20h180l62 15c239 56 452 250 534 485l26 75 49 35c27 19 85 71 129 115l80 80 37 70c20 39 47 104 59 145l24 75v270l-23 65c-51 145-161 320-293 464l-46 51-53 145c-158 438-306 632-559 729l-76 29-78 11c-85 12-89 12-192 0zm-50-637c22-5 33-10 25-11l-15-1 30-15 30-15 12-28c6-15 15-45 19-66l7-39-24 7c-13 3-53 14-89 22l-65 16-70-6c-100-8-200-42-246-83l-16-14 3 27c3 35 32 74 113 155l66 67 90-3c50-2 108-8 130-13zm-25-172 25-8h-210l25 8c14 4 50 8 80 8s66-4 80-8zm50-76 54-16-34-13c-124-46-255-90-447-149l-23-7v31h-15c-26 0-16 16 38 62 57 49 101 75 162 94l40 13h86l85 1 54-16zm-516-118-5-14 18-4 18-4-22-6-23-6v17c0 10 3 21 7 24 10 11 13 8 7-7zm-18-172c-3-9-6-22-6-30v-13l-16 6-16 6-9-14c-5-8-9-29-9-46v-33h9c5 0 12 6 14 13l5 12 1-20 1-20 10 15 10 15v-35h20v-27c0-16-3-39-7-51l-6-24-8 14-9 13 6-35c4-19 11-43 15-52l9-17v-73c0-40-4-78-8-85l-7-11h-52l-53-1v12c0 7 11 24 25 39l25 27v80l10 6 11 7-11 13-10 12 5 15 6 15-50 46c-28 26-56 47-63 48h-13l24 10 23 9-6 24c-3 14-3 31 0 40l6 16 19-11 20-10-7-12-7-12 18 17 17 16-8 14c-5 7-10 24-12 37l-3 24 15-6 14-6 18 20c9 10 24 19 32 19h14l-6-16zm874-52v-24l-25 30c-14 17-25 38-25 48v17l25-23 25-23v-25zm-590-32c0-16-55-67-81-73l-24-6-15 9-15 9 11 18 10 17 50 17c59 21 64 22 64 9zm571-40c5 0 9 6 10 13 2 25 17-39 18-77l1-39-7 6-6 7-14-20c-8-11-18-20-24-20h-9v58c0 31 3 68 7 82l7 25 4-17c2-10 8-18 13-18zm-616-368c19-25 35-52 35-60 0-20-79-144-102-160l-18-13v-37l-15-6-15-5 6 27c4 15 11 35 15 44l9 17 1 168v168l24-49c14-27 40-69 60-94zm-540 38 6-10h-10c-6 0-11 5-11 10 0 6 2 10 4 10 3 0 8-4 11-10zm-15-60c0-5-4-10-10-10-5 0-10 5-10 10 0 6 5 10 10 10 6 0 10-4 10-10zm144-288c-1-7-2-21-2-31l-2-20-31-15-31-16 6 32c3 17 14 40 23 50 17 20 39 19 37 0z"/></g><g fill="#4b9ee2" transform="matrix(.1 0 0 -.1 0 300)"><path d="M1128 2923c7-3 16-2 19 1 4 3-2 6-13 5l-19-1 13-5zm-70-10c6-2 18-2 25 0l12 5h-50l13-5zm170 0c12-2 30-2 40 0l17 5-40-1h-40l23-4zm-220-10c6-2 18-2 25 0l12 5h-50l13-5zm307-3c11-5 27-9 35-9h15l-20 9c-11 5-27 9-35 9h-15l20-9zm-347-7c7-3 16-2 19 1 4 3-2 6-13 5l-19-1 13-5zm410-10c7-3 16-2 19 1 4 3-2 6-13 5l-19-1 13-5zm55-10c9-2 23-2 30 0l12 5h-60l18-5zm-488-323-18-20-33-6-34-6v-25l-40-12c-21-6-42-16-45-21-4-6-21-16-39-24-18-7-48-28-68-45s-40-31-45-31-37-25-70-55c-34-30-64-55-68-55s-18-9-33-20l-25-21-7 12-7 11-6-24-6-24-91-83c-50-46-116-114-146-151l-54-67-34-75-35-74-17-74-17-74 6-111 5-110 16-60c22-82 69-174 127-251 27-36 49-70 49-77s20-24 43-38 93-66 155-115 144-111 182-139c87-62 263-182 315-215 86-54 194-118 215-128 14-7 39-21 55-31l30-19-3-11-2-11h90l71-35c110-56 282-124 367-145l77-20h90c99 0 150 9 238 42 94 34 59 30-72-8l-24-7 7 11 7 12h-32l7-12 7-11-17 6c-10 4-35 7-56 7h-39l-3 53-3 52-22 3-23 3v89h22l-24 43-24 42-2 34c-2 18-7 41-12 51l-9 18-36 6c-19 4-35 10-35 14 1 12 29 57 30 47v-10l9 14 10 15-16 11-16 12 11 7c17 10 15 26-4 26h-15l6 9 5 10 20-4 20-4v29l23 9c12 5 39 21 60 35s41 26 45 26 34 27 66 59l58 59-42 46-43 46-21 6-21 5v79h25c34-1 97-30 139-66l34-28 26 32c25 29 68 109 104 193 8 20 23 82 32 139l18 102-6 97-5 96-17 65c-35 135-112 267-225 384l-78 81-79 47c-43 26-105 57-137 68l-59 21-13-5-13-5-3 11-4 11-23-8-24-7 29-14 29-14 12-28c6-15 15-45 19-66l7-39-24 7c-13 3-53 14-89 22l-65 16-70-6c-100-8-200-42-246-83l-16-14 3 26c4 38 47 96 115 155 32 28 59 56 59 62v10l-62-5c-35-3-83-11-108-17-77-19-94-22-124-23l-29-2-4 12-4 11 43 8c24 4 52 6 63 5l20-3-7 7c-4 4-31 8-60 9l-53 2-19 10-18 11 16 6 16 6-6 14-5 15-30 6-29 6v27c0 16-5 35-10 43l-10 15-7-11c-5-6-19-17-32-24l-24-12-8 13-8 14 28 8 29 7 6 16c3 9 4 20 0 25l-5 9h39l6 16c14 36-20 46-49 14zm645-430 25-8h-210l25 8c14 4 50 8 80 8s66-4 80-8zm60-80 58-20 42 15c24 8 55 15 71 15h28l35-31 36-31 2-186 3-187 12 25 12 25v-17c1-20 20-25 22-5 1 6 5 1 9-13 10-30 13-106 4-97-4 3-15-4-25-16l-19-22-7 11-8 12-1-138-2-138-25-34-24-33 4-11 4-11-21-6c-20-5-29-27-10-27 23 0 8-19-20-25-17-4-37-13-45-22l-15-14v21l-30-7-31-6-14 19c-8 11-15 27-15 36v16l-33 11-34 11-26 41-27 41v76l15 12c8 7 15 18 15 24 0 15 48 60 75 71 11 5 47 11 80 14l60 6 3 164 3 163-12 14-11 14h-25c-24 0-163-39-292-82l-64-21-33 1-33 1-6-9c-3-6-16-9-28-9l-22 1 18 5 18 5-5 36c-3 20-3 30 0 21l5-17 22 6c12 3 24 8 27 11 5 6 54 22 138 43l43 12 10 18 9 17 26-11 26-12 10 18 10 18 21-5 22-6 47 13 48 12 14 19 15 20 12-12c19-19 29-16 29 7v20h-22l7 30 7 30h-33l-5-15-6-14-36 3-37 4-55-18-55-18 3-31c3-33 2-34-22-25l-16 6v38h-29c-37 0-44-11-31-46l11-27-13-8c-17-11-25-3-33 31l-6 29-47-6c-26-3-56-10-67-16s-27-12-35-13-30-5-47-9l-33-7v8c0 11 95 54 120 54 10 0 22 5 25 10 3 6 14 10 23 10 9 1 31 7 47 15l30 15-25-6c-14-3-72-20-130-39-58-18-115-36-127-39l-23-7v31h-15c-26 0-16 16 38 62 57 49 101 75 162 94l40 13h88l88 1 59-20zm-526-114-5-14 18-4 18-4-22-6-23-6v17c0 10 3 21 7 24 10 11 13 8 7-7zm636-6 15-9-13-13-12-12v35l-37-6-38-5 20 9c26 13 47 13 65 1zm-339-113-12-12-9 15-9 14 11 14 11 13 10-16 9-17-11-11zm-315-53c-3-9-6-22-6-30v-13l-16 6-16 6-9-14c-5-8-9-29-9-46v-33h9c5 0 12 6 14 13l5 12 1-20 1-20 10 15 10 15v-35h20v-27c0-16-3-39-7-51l-6-24-8 14-9 13 6-35c4-19 11-43 15-52l9-17v-73c0-40-4-78-8-85l-7-11h-52l-53-1v12c0 7 11 24 25 39l25 27v80l10 6 11 7-11 13-10 12 5 15 6 15-50 46c-28 26-56 47-63 48h-13l24 10 23 9-6 24c-3 14-3 31 0 40l6 16 19-11 20-10-7-12-7-12 18 17 17 16-8 14c-5 7-10 24-12 37l-3 24 15-6 14-6 18 20c9 10 24 19 32 19h14l-6-16zm874-52v-24l-25 30c-14 17-25 38-25 48v17l25-23 25-23v-25zm-745-3 7-10 14 5 13 5 6-8 5-9-18-4-17-4-17 18-18 18h9c6 0 13-5 16-11zm155-29c0-16-55-67-81-73l-24-6-15 9-15 9 11 18 10 17 50 17c59 21 64 22 64 9zm-45-408c19-25 35-52 35-60 0-20-79-144-102-160l-18-13v-37l-15-6-15-5 6 27c4 15 11 35 15 44l9 17 1 168v168l24-49c14-27 40-69 60-94zm-540 38 6-10h-10c-6 0-11 5-11 10 0 6 2 10 4 10 3 0 8-4 11-10zm-15-60c0-5-4-10-10-10-5 0-10 5-10 10 0 6 5 10 10 10 6 0 10-4 10-10zm1095-201 7-31-13-9c-8-5-20-8-28-6l-14 2-10 29-9 28 13 9c8 5 22 9 31 9h16l7-31zm-98-55c-2-3-12-2-21 2l-17 7 5 13 5 14h-23l20 14 19 15 8-31c5-17 6-32 4-34zm-100 14-5-13-1 19c-1 11 2 17 5 13 3-3 4-12 1-19zm10-40-5-13-1 19c-1 11 2 17 5 13 3-3 4-12 1-19zm-763-6c-1-7-2-21-2-31l-2-20-31-15-31-16 6 32c3 17 14 40 23 50 17 20 39 19 37 0zm450-98 6-15-10 6c-6 3-10 10-10 16 0 14 7 11 14-7zm174 1119c7-3 16-2 19 1 4 3-2 6-13 5l-19-1 13-5zm365-408v-40l4 23c2 12 2 30 0 40l-5 17 1-40zm-342-301 1-19 5 13c3 7 2 16-1 19-3 4-6-2-5-13zm22 1029c9-2 23-2 30 0l12 5h-60l18-5zm1021-298c14-37 35-149 52-280l17-130v-195l1-195-18-155c-18-146-54-343-71-383l-8-18 54 38c30 21 90 74 134 118l80 80 37 70c20 39 47 104 59 145l24 75v270l-23 65c-13 36-32 83-43 105-49 102-204 319-270 380l-32 30 7-20zM1800 560c0-5 5-10 10-10 6 0 10 5 10 10 0 6-4 10-10 10-5 0-10-4-10-10zm425-400-6-10 15 6c18 7 21 14 7 14-6 0-13-4-16-10zm-275-20v-20h28l-5 20c-3 11-9 20-14 20s-9-9-9-20z"/></g><g fill="#c75a8b" transform="matrix(.1 0 0 -.1 0 300)"><path d="M1275 2295c-83-19-148-43-232-89l-72-38-58-50c-32-28-82-78-111-112l-52-61-50-102-51-102-19-91-20-91 1-105 1-104 8-5 8-5-5-20-6-21 17-18c9-10 13-20 10-24-3-3-3-19 1-36l7-31 7 5 8 4 1-28 1-29 27-53c30-60 72-119 85-119h8l-5 28c-2 15-6 37-9 49l-5 22 15 14 14 15-7 7-7 7 25-7c14-4 30-10 37-12l11-4 24 48 25 48-5 14-5 14 12-7 11-7 31 25c17 14 35 26 40 26s9 8 9 18v17l25 27 25 27v80l10 6 11 7-11 13-10 12 5 15 6 15-50 46c-28 26-56 47-63 48h-13l24 10 23 9-6 24c-3 14-3 31 0 40l6 16 19-11 20-10-7-12-7-12 18 17 17 16-8 14c-5 7-10 24-12 37l-3 24 15-6 14-6 18 20c9 10 24 19 32 19h14l-6-16c-3-9-6-22-6-30v-13l-16 6-16 6-9-14c-5-8-9-29-9-46v-33h9c5 0 12 6 14 13l5 12 1-20 1-20 10 15 10 15v-17c0-10 4-18 10-18h9l7 36 7 36-7 52-6 52 17 24c9 14 25 31 35 38s18 20 18 28v14h-15c-26 0-16 16 39 64l55 47 58 26 58 27 100 4 100 4 63-20 62-20 50 16c28 9 50 19 50 22 0 12-132 69-200 86l-65 16-70-6c-100-9-200-42-246-83l-16-14 3 26c4 38 47 96 115 155 32 28 59 56 59 61v9l-27-1c-16 0-55-7-88-14zm362-181c26-9 55-22 63-30l15-15-45 16-45 16-80 6-80 5-60-15c-33-8-71-19-85-23l-25-7 11 12c6 6 33 20 60 31l49 19 87 1h87l48-16zm-513-188-5-14 18-4 18-4-22-6-23-6v17c0 10 3 21 7 24 10 11 13 8 7-7zm-319-626 6-10h-10c-6 0-11 5-11 10 0 6 2 10 4 10 3 0 8-4 11-10zm-15-60c0-5-4-10-10-10-5 0-10 5-10 10 0 6 5 10 10 10 6 0 10-4 10-10zm868 1024 32-16v-12c0-7 13-25 29-40l29-28 9 5c12 7 35-13 55-48l17-30 15 1 14 2-5-15-6-14 30-32c17-18 36-42 42-54l11-21-6-89-6-88 35-34 35-33-5-36-6-35 29 6c16 3 23 4 16 1l-13-6 12-14 11-14h43l-13-8-13-9 28-12 27-12-25-12-24-13-10-47-10-48-14 13-14 13 6-11 7-12-26-46-26-46 16 6 16 6v-22h-40v-14c0-7-7-19-15-26l-15-12v-55l-23-44-24-44 35-43 34-42h30l-5-14-6-14 46-17c25-10 61-31 80-48l36-31 26 32c37 43 93 153 94 184 1 14 5 24 9 22 9-6 15 15 34 126l16 95-5 100-5 100-17 65c-34 131-111 264-218 376-76 80-125 118-218 165-57 28-163 59-204 59h-20l33-16zm382-1134c0-5-4-10-10-10-5 0-10 5-10 10 0 6 5 10 10 10 6 0 10-4 10-10zm170-29c0-6-4-13-10-16l-10-6v15c0 9 5 16 10 16 6 0 10-4 10-9zm-409 853-12-26-18 16c-10 9-21 16-24 16-13 0-7-23 9-34l15-12-6-16-6-16-37-5c-38-7-57-1-28 8 9 3 23 7 31 10 8 2 15 9 15 16v11l-12-5c-7-2-23-7-35-11l-23-7v19l30 7c17 4 30 11 30 16 0 12-20 11-59-2l-31-11v-23l-10 15-10 15-1-10c0-5-2-23-2-40l-2-30h-30l-12 27-13 26-21-5-20-6 6-38 7-39h-50l-7 30c-4 17-11 30-16 30h-9l-1-22-1-23-5 18-5 19-36-7-37-6-12-15-11-15-6 9-6 10-79-22c-44-12-82-24-86-28l-6-6 6-35 7-36 11-4c7-2 27 0 45 5l32 9 1 22 1 22 5-17c2-10 9-18 14-18h9v41l29-15 28-15 7 6c11 12 6 23-11 24l-18 1 13 5c6 2 12 12 13 21l1 17 7-25 7-25 26-3 27-3 20 10 19 11-4 22-5 23 10-22c12-27 20-28 66-9l35 15-7 16-6 17 30-16 31-15 16 18c9 10 16 26 17 37v19l9-21c13-33 22-35 78-17l52 17 6 18 6 19 23-15 24-16 7 11 7 12-17 9-17 10 6 29 7 29h-10c-5 0-14-12-21-26zm-371-134v-18l-17-6-16-7-9 13c-13 21-9 36 10 41 23 5 32-1 32-23zm-110-10c-8-5-21-10-28-10h-13l6 10c3 6 16 10 28 10h22l-15-10zm-60-14v-14l-12 1c-31 1-48-4-48-13v-10h41l-6-10c-3-5-15-10-26-10h-19v38c0 5 33 21 68 31 1 1 2-5 2-13zm477-13c-3-2-17-6-33-9-15-3-35-9-43-14l-16-9 15-1 15-1-18-10-18-11-12 11-13 10-112-35-112-35v-9c0-5-13-22-28-38l-28-29-26-6-27-7-17 17-17 17 5-104 6-105 21-47c12-25 39-70 61-99 22-30 40-60 40-68 0-19-79-143-102-159l-18-13v-50l11 7 11 6-11-20-11-20-57-6c-32-3-96-9-142-12l-84-6-11-29-11-29-11 4-12 5-8-17c-4-9-9-25-10-34l-4-17 63-45c72-51 163-95 258-124l65-20 90-7 89-7 90 11 90 11 72 25c40 13 105 41 144 62l71 38 61 56 62 57-53 52-53 52-15-6c-9-3-20-3-25 0l-10 6 11 13 11 13-10 42c-5 24-16 49-23 56l-13 13-50-14c-27-9-52-20-56-26l-6-11 10-41c5-23 14-48 20-54l9-13h-11c-6 0-11 5-11 10v10h-50l-10 26c-11 29-6 44 16 44h14v30l-41-2-42-3-4 25c-2 14-9 27-15 29-7 2-31 23-54 47l-43 43-7 47-7 48 24 45 24 45 46 23 45 22 60 3 59 3 3 168 2 168-10-6-10-6v8c0 8-46 14-53 6zm148-744 7-31-13-9c-8-5-24-9-35-9h-22l-6 23c-12 44-5 52 46 56l16 1 7-31zm-258-21-5-13-1 19c-1 11 2 17 5 13 3-3 4-12 1-19zm71-53v-20l-8 25c-4 14-8 32-8 40l-1 15 9-20c5-11 8-29 8-40zm-241-17-5-13-1 19c-1 11 2 17 5 13 3-3 4-12 1-19zm57-43 6-30-9 15c-5 8-11 31-15 50l-6 35 8-20c5-11 12-33 16-50zm93 43-5-13-1 19c-1 11 2 17 5 13 3-3 4-12 1-19zm-248-28v-15l-9 20c-5 11-9 25-9 30l-1 10 10-15c5-8 9-22 9-30zm108-12-5-13-1 19c-1 11 2 17 5 13 3-3 4-12 1-19zm-183-58 6-35-8 20c-5 11-12 34-16 50l-6 30 9-15c5-8 11-31 15-50zm98 5 9-20-15 19c-9 11-16 27-15 35l1 16 5-15c3-8 10-24 15-35zm-298-5 6-35-10 15c-5 8-10 26-10 39 0 32 6 24 14-19zm847 828 1-43 8 30 8 30 1-33 1-33 10 6 10 6v55l-12 12c-7 7-16 12-20 12h-8l1-42zm-820-153-1-20-10 15-11 15 7-30c3-16 8-38 11-49l5-18 8 8 8 9-8 45-7 45-2-20z"/></g><g fill="#47457d" transform="matrix(.1 0 0 -.1 0 300)"><path d="M1278 2293c7-3 16-2 19 1 4 3-2 6-13 5l-19-1 13-5zm-120-31c-26-9-50-21-55-26l-8-8 25 7c35 10 107 43 95 43-5 0-31-7-57-16zm594-9 17-4 7-22c5-12 7-30 5-41-1-10 1-22 6-25 4-3 16-19 25-36l17-30 15 1 14 2-5-15-6-14 30-32c17-18 36-42 42-54l11-21-6-89-6-88 35-34 35-33-5-36-6-35 29 6c16 3 23 4 16 1l-13-6 12-14 11-14h43l-13-8-13-9 28-12 27-12-25-12-24-13-10-47-10-48-14 13-14 13 6-11 7-12-26-46-26-46 16 6 16 6v-22h-40v-14c0-7-7-19-15-26l-15-12v-55l-23-44-24-44 35-42 34-43h30l-5-14-6-14 46-17c25-10 61-31 80-48l36-31 26 32c37 43 93 153 94 184 1 14 5 24 9 22 9-6 15 15 34 126l16 95-5 100-5 100-17 65c-19 73-62 168-113 248-45 71-164 195-227 237-61 41-175 95-195 94l-15-1 17-5zm288-1123c0-5-4-10-10-10-5 0-10 5-10 10 0 6 5 10 10 10 6 0 10-4 10-10zm170-29c0-6-4-13-10-16l-10-6v15c0 9 5 16 10 16 6 0 10-4 10-9zM1027 2198c-70-38-154-110-225-192l-52-61-50-102-51-102-19-91-20-91 1-105 1-104 8-5 8-5-5-20-6-21 17-18c9-10 13-20 10-24-3-3-3-19 1-36l7-31 7 5 8 4 1-28 1-29 27-53c30-60 72-119 85-119h8l-5 28c-2 15-6 37-9 49l-5 22 15 14 14 15-7 7-7 7 25-7c14-4 30-10 37-12l11-4 24 48c14 26 23 54 20 61l-4 12 14-5 14-6 18 20 19 20-66-6-67-6-9 24c-5 13-10 19-10 12-1-6-8-18-16-26l-15-15-25 11-26 12 2 35c1 19 1 41 0 48l-1 13-20-11-20-11v9c0 5 18 23 39 40l40 32h51l6 24 6 24-17 26-17 26-22 1-21 1 13 5c6 2 12 11 12 19v14h23c12 0 28 4 35 9l14 8 1 59 2 59 10 7 10 8h-11c-7 0-14 7-17 14l-6 15 12-5 13-5-2 38-2 38 18 55 18 55-11 8-12 8 23-6 22-6 1 8c0 4 3 19 6 33 2 14 5 30 7 35 1 6 5 16 9 23l8 12h-13l-13 1 19 14c10 8 23 12 27 9l9-5 1 13c1 7 3 28 5 46l2 34 18 19c9 10 13 19 9 19-5 0 10 14 33 31 36 26 50 40 40 39-2 0-29-15-61-32zm-200-403c0-8-4-15-9-15-4 0-8 7-8 15s4 15 8 15c5 0 9-7 9-15zm-97-99c0-3-4-8-10-11l-10-6v10c0 6 5 11 10 11 6 0 10-2 10-4zm40-96c0-5-4-10-10-10-5 0-10 5-10 10 0 6 5 10 10 10 6 0 10-4 10-10zm-90-30c0-5-4-10-10-10-5 0-10 5-10 10 0 6 5 10 10 10 6 0 10-4 10-10zm0-65v-15h-30v30h30v-15zm30-255c0-5-4-10-10-10-5 0-10 5-10 10 0 6 5 10 10 10 6 0 10-4 10-10zm71-63c-1-12-15-9-19 4l-4 12 12-4c6-3 11-8 11-12zm622 959c-83-19-139-46-190-90l-42-37 5-13 5-13-18-14-18-14 15 20 15 20-17-13-17-13 5-14 5-13-10-7c-6-3-11-13-11-21v-14h31l37 36c20 20 60 49 87 65l50 29 74 16 73 17 65-7 65-7 49-18 49-19 50 16c28 9 50 19 50 22 0 8-85 49-150 72l-55 19-70 4-70 5-62-14zm234-32c26-9 55-22 63-30l15-15-45 16-45 16-80 6-80 5-60-15c-33-8-71-19-85-23l-25-7 11 12c6 6 33 20 60 31l49 19 87 1h87l48-16zm164-160-12-26-18 16c-10 9-21 16-24 16-13 0-7-23 9-34l15-12-6-16-6-16-37-5c-38-7-57-1-28 8 9 3 23 7 31 10 8 2 15 9 15 16v11l-12-5c-7-2-23-7-35-11l-23-7v19l30 7c17 4 30 11 30 16 0 12-20 11-59-2l-31-11v-23l-10 15-10 15-1-10c0-5-2-23-2-39l-2-29-12-4-12-4-18 28-18 29-18-4-18-4 6-39 7-39h-50l-7 30c-4 17-11 30-16 30h-9l-1-22-1-23-5 18-5 19-36-7-37-6-12-15-11-15-6 9-6 10-79-22c-44-12-82-24-86-28l-6-6 6-35 7-36 11-4c7-2 27 0 45 5l32 9 1 22 1 22 5-17c2-10 9-18 14-18h9v41l29-15 28-15 7 6c11 12 6 23-11 24l-18 1 13 5c6 2 12 12 13 21l1 17 7-25 7-25 26-3 27-3 20 10 19 11-4 22-5 23 10-22c12-27 20-28 66-9l35 15-7 16-6 17 30-16 31-15 16 18c9 10 16 26 17 37v19l9-21c13-33 22-35 78-17l52 17 6 18 6 19 23-15 24-16 7 11 7 12-17 9-17 10 6 29 7 29h-10c-5 0-14-12-21-26zm-371-134v-18l-16-6c-9-3-20-6-25-6h-9v49l18 4c23 5 32-1 32-23zm-110-10c-8-5-21-10-28-10h-13l6 10c3 6 16 10 28 10h22l-15-10zm-60-14v-14l-12 1c-31 1-48-4-48-13v-10h41l-6-10c-3-5-15-10-26-10h-19v38c0 5 33 21 68 31 1 1 2-5 2-13zm-183 49-27-50v-56l25 18c13 10 27 26 30 36 4 9 12 17 18 17 7 0 24 13 40 29l27 28-14 13c-9 6-28 13-44 14l-29 2-26-51zm660-62c-3-2-17-6-33-9-15-3-35-9-43-14l-16-9 15-1 15-1-18-10-18-11-13 11-13 11-39-14-39-13v-58l-13 3-13 2-24-27c-13-16-30-39-37-53s-27-39-45-56l-33-31-30-6c-16-4-36-4-44-1l-14 5-11 42c-5 23-12 51-15 62-2 11-4-16-5-60 0-44 2-90 5-102l6-23 9 6 9 5 30-21c17-12 30-26 30-32s10-30 22-54l21-43 9 5 8 5v-19c0-11 12-37 26-58l26-38-16 13-16 13v-25c0-14-4-28-9-31-4-3-11-21-14-40l-5-34-21-21c-12-12-25-21-31-21-5 0-10-7-10-16v-15l-10 6-11 7-28-31-29-31-53-5c-30-3-92-8-138-11l-84-6-11-29-11-29-11 4-12 5-8-17c-4-9-9-25-10-34l-4-17 63-45c72-51 163-95 258-124l65-20 90-7 89-7 90 11 90 11 72 25c40 13 105 41 144 62l71 38 61 56 62 57-53 52-53 51-18-6-19-6-6 10-6 10 9 5 9 6-10 47c-6 27-15 54-22 60l-11 12-50-14c-27-9-52-20-56-26l-6-11 10-41c5-23 14-48 20-54l9-13h-11c-6 0-11 5-11 11v11l-29-4-29-4-6 29c-7 33-1 47 20 47h14v30l-41-2-42-3-4 25c-2 14-9 27-15 29-7 2-31 23-54 47l-43 43-7 47-7 48 24 45 24 45 46 23 45 22 60 3 59 3 3 168 2 168-10-6-10-6v8c0 8-46 14-53 6zm148-744 7-31-13-9c-8-5-23-9-34-9h-21l-11 31-12 30 22 9c12 5 30 9 39 9l16 1 7-31zm-258-21-5-13-1 19c-1 11 2 17 5 13 3-3 4-12 1-19zm71-53v-20l-8 25c-4 14-8 32-8 40l-1 15 9-20c5-11 8-29 8-40zm-292-83c-5-5-26 59-25 77 0 9 7-4 14-29 8-24 13-46 11-48zm51 66-5-13-1 19c-1 11 2 17 5 13 3-3 4-12 1-19zm57-43 6-30-9 15c-5 8-11 31-15 50l-6 35 8-20c5-11 12-33 16-50zm23 43-5-13-1 19c-1 11 2 17 5 13 3-3 4-12 1-19zm70 0-5-13-1 19c-1 11 2 17 5 13 3-3 4-12 1-19zm-248-28v-15l-9 20c-5 11-9 25-9 30l-1 10 10-15c5-8 9-22 9-30zm108-12-5-13-1 19c-1 11 2 17 5 13 3-3 4-12 1-19zm-183-58 6-35-8 20c-5 11-12 34-16 50l-6 30 9-15c5-8 11-31 15-50zm98 5 9-20-15 19c-9 11-16 27-15 35l1 16 5-15c3-8 10-24 15-35zm-298-5 6-35-10 15c-5 8-10 26-10 39 0 32 6 24 14-19zm233 8-5-13-1 19c-1 11 2 17 5 13 3-3 4-12 1-19zm-210 885c-4-3-7-30-7-59v-53l9-5 9-6 6 16c3 9 6 38 6 65v49h-8c-5 0-12-3-15-7zm824-65 1-43 8 30 8 30 1-27 1-28h20v56l-12 12c-7 7-16 12-20 12h-8l1-42zm-876 20-7-18 7-17 8-18 4 18c3 9 3 25 0 35l-4 17-8-17zm27-18v-35l5 18c2 9 2 25 0 35l-5 17v-35zm25-167-6-33 8-22 8-21 5 9c3 5 3 29-1 54l-7 45-7-32z"/></g><g fill="#181541" transform="matrix(.1 0 0 -.1 0 300)"><path d="M1380 2135c-25-7-58-18-75-24-37-15-98-61-91-68 3-4-10-23-28-44-19-20-39-46-45-56l-10-20 20 2 20 1 42 35c65 53 88 66 167 90l72 22 82-6 81-5 44-16 44-16 20 6 19 6-19 13c-24 17-83 34-155 45l-58 8-58-8-58-8-75-30-74-29-12 4c-21 8-7 19 61 51 56 26 87 35 191 56l20 4h-40c-22 0-60-6-85-13zm195 0 70-14 68-35 67-34v26l-77 32-77 32-61 4-60 4 70-15zm375-37c48-134 67-185 81-213l15-30-3-17-4-18h15c9 0 15-3 15-7-1-5-1-16 0-26l1-18 9 6 10 5 6-10 6-10h-18l-18-1 18-13 18-14-9-6-10-6 15-42c8-23 23-54 33-68 11-15 17-29 15-32-3-3-7-27-10-54-8-70-14-85-46-118l-28-29 9-18c15-26 12-33-6-18l-16 13-11-19c-15-25-16-48-2-57l10-8-13-9-13-8-9-39-9-39 12-7c7-4 18-12 26-17l15-9-12-14-11-14 7-10c4-6 21-17 38-26l31-15 22 9c27 10 41 3 41-20v-16l17 17 17 17-11 11-11 11 4 13 5 13 20-5 19-5v16c0 9 4 24 10 34 21 38 49 141 56 201l7 63-14 9-14 9h25v68c-1 69-7 107-33 202l-15 54-11 4-11 4 5 9 6 9-38 67c-63 114-141 207-227 271-16 12-32 22-37 22h-8l19-52zm220-248c0-5-2-10-4-10-3 0-8 5-11 10l-6 10h10c6 0 11-4 11-10zm-100-10c0-5-5-10-11-10h-10l6 10c3 6 8 10 11 10 2 0 4-4 4-10zm140-488c0-4-10-9-22-9l-23-2 15 9c18 12 30 13 30 2zm-80-31c0-6-4-13-10-16l-10-6v15c0 9 5 16 10 16 6 0 10-4 10-9zm14-202-5-9-10 6-9 5 6 10 5 9 10-6 9-5-6-10zM936 2103l-7-18 12 12c7 7 10 15 7 18s-9-2-12-12zm-131-120c-16-20-31-40-33-44-6-15 21-10 41 9l20 17-8-15-9-15 19 15 18 15-17 3-17 4 4 11c3 7 9 11 15 10 5-1 13 4 16 12l5 15h-12c-7 0-25-17-42-37zm1000-32-6-21h-14c-8 0-17 5-20 10-3 6-12 10-18 9h-12l22-16 23-15-11-20c-6-11-8-22-6-25 3-2 8 5 12 16 7 24 17 26 48 10l22-10-21 19-22 18 10 18c5 10 8 20 5 23-3 2-8-5-12-16zm-122-13-33-11v-26c0-14 4-32 9-39l8-13 37 6c20 4 36 11 36 16v9l-26-10c-34-13-44-13-44 4v14l32 6c17 3 28 9 25 12-3 4-20 2-36-4l-31-11v27l30 7c17 4 30 11 30 16s-1 9-2 8c-2-1-18-6-35-11zm-939-48c-4-16-11-30-16-30-10 0-68-124-68-148-1-10-7-34-14-54l-13-37 11-5 11-4-11-9-11-8-6-45-6-45 9 22 9 23 25-11 24-11 6-29c3-16 6-32 7-37 2-13 21-32 33-31l11 1-12 5c-15 5-17 23-4 23 5 0 12-8 15-17l7-16-13-9-13-8h17c9 0 20 5 23 10 4 6 10 8 15 5l9-5 6 20 6 20-6 10c-3 5-17 10-31 10h-24l-20 20c-25 25-25 26 0 33l20 5-4 43-4 43 8-13 8-13 6 11c4 6 5 15 2 20l-6 8 20 18 20 18-10 12-10 12 25 11c28 13 29 14 15 61l-10 34 11 13 10 13-21 11-21 11 7 35 6 34h-42l-6-30zm46-61v-10l13 7 12 8-14-18-14-17-8 13c-12 18-11 28 1 28 6 0 10-5 10-11zm10-62v-13l-20-1-20-2v9c0 5 8 11 18 13 9 3 18 5 20 6 1 0 2-5 2-12zm-70-81c0-8 6-16 13-19 6-2 9-7 6-11l-6-6-21 18-22 19 7 7c11 11 23 7 23-8zm-45-116v-15h-12c-7 0-13 4-12 9 0 5-5 13-13 18l-13 9 25-3 25-3v-15zm938 328 4-28-11-16-12-15-16 6-17 7-10 26-9 27-1-17-1-18 20-20c11-11 26-20 33-20h14l12 23 12 23-11 24-10 25 3-27zm-538-47c-10-23-22-41-27-41h-8v-71l23 23c13 13 26 31 30 41l6 17h30l11 19c12 24 13 51 1 51-5 0-12-11-15-25-4-14-11-25-17-25h-10l6 10 6 10-9 15-8 16-19-40zm443 4 4-35h-10c-6 0-17-3-26-6l-16-6-9 23-10 24v-15c0-8 3-21 8-29l9-14 34 9 33 10-3 30c-2 16-7 32-11 36l-7 8 4-35zm402-23v-44l20-25 20-26v34l-1 34-19 35-19 35-1-43zm-559 19-14-9 7-37 7-37 32 6c17 4 35 10 39 14l8 8-6 32-6 32h-27c-14 0-32-4-40-9zm63-23 5-23-7-6c-4-4-17-10-29-13l-22-7-7 27-7 26 14 9c8 5 21 9 30 9h17l6-22zm-144 3-25-7 2-33c0-18 6-38 12-44l10-10-6 23-6 23 24-7c13-4 33-9 44-12l20-5-25 11-25 11 15 12 16 12-4 18-3 17-12-1c-7-1-23-4-37-8zm40-16v-15h-20c-11 0-23 0-27-1-4 0-9 4-11 9l-3 10 23 5c13 2 26 5 31 6 4 0 7-6 7-14zm-130-8-35-12 3-30c2-17 7-34 12-39l9-9 32 9c36 10 43 22 30 43l-9 15-24-12-23-12 23 6 22 5v-29l-22-6-23-5-6 7c-4 4-10 17-14 30l-6 22 30 6c18 4 34 11 37 15 6 11 8 11-36-4zm570-42-13-16v-32c1-18-1-26-4-20l-5 13-28-15c-16-8-33-15-37-14s-12 1-18 0l-10-1 15-11 15-11-17 6-17 5-28-14c-15-8-33-15-38-15-6 0-27-14-48-31l-37-31 6-9 5-9-8 1c-18 4-45-15-59-42l-14-29-50-33-50-34 15-13c22-18 54-82 72-143l15-50 29-30 30-29 29 4 30 5v-8c0-4-15-9-32-12l-33-5-10 9c-5 5-12 9-16 9-6 0-41-84-40-95 3-15-30-62-51-74l-25-13 20-61c11-34 25-65 31-69l11-8h-34l-17 58c-9 31-18 58-19 60-2 2-28-4-59-13l-56-16v-15c0-8-4-14-10-14-5 0-10 6-10 14v13l-27-2c-16-1-34-3-41-3l-13-2 7-12 7-11-17 6-17 7-11-26-12-25 13-21c15-25 9-34-9-13l-13 16v59l-26 1c-40 2-56-2-60-14-2-6-17-23-33-38l-30-27 53-40c68-51 204-116 289-139l65-17 140 1h140l72 21c81 23 186 71 251 115l43 29-4 12-5 12 22 2 21 1 17 21 17 21-12 20c-14 23-22 23-77 4-45-16-60-13-60 11v15l38-7 37-7-12 15c-7 8-10 17-7 20s-8 10-24 16l-28 10-40-14c-21-8-52-14-69-14l-30 1 18 10 17 10-5 10-6 9-23-6-24-6-11 33c-15 43-14 47 9 51l21 3-3 10c-3 11-5 11-60 0l-36-7-18 39c-10 21-25 46-33 55l-15 17-14-11-13-11 7 28 7 28-9-6-10-6-1 17c0 9-4 40-7 67l-6 50 17 35 18 34 42 29 42 30 49 5 50 4 12 62c13 66 26 266 18 266-3 0-11-7-18-15zm-120-175c0-5-5-10-11-10h-10l6 10c3 6 8 10 11 10 2 0 4-4 4-10zm-50-510c0-5-4-10-10-10-5 0-10 5-10 10 0 6 5 10 10 10 6 0 10-4 10-10zm39-72c5-18 12-48 16-65l7-33h-19l-11 48c-6 26-14 55-17 65l-7 17h20l11-32zm59-20 10-38h-9c-10 0-28 61-22 73 7 12 10 7 21-35zm-189-50c13-56 14-68 2-68-4 0-11 15-14 33-3 17-9 48-13 67l-7 35 10-10c6-5 15-31 22-57zm101 23 9-31h-9c-8 0-20 34-20 59 0 21 9 8 20-28zm-151 7c4-13 11-35 15-50l6-28h-9c-4 0-11 12-15 28-3 15-8 37-12 50l-6 22h6c4 0 10-10 15-22zm90-42 1-20-9 10c-4 5-11 21-15 35l-6 26 8 7 7 8 6-24c4-13 7-32 8-42zm-142-41-3-20-16 50c-8 28-13 54-10 59l5 10 14-40c8-21 12-48 10-59zm-97 24c0-5 3-8 8-6l7 5 1-44c2-54-3-51-21 10l-14 46h9c6 0 10-5 10-11zm-22-56 10-43h-9c-8 0-29 63-29 90v14l9-9c4-6 13-29 19-52zm-138 7v-10h-19c-11 0-23 5-26 10l-6 10h51v-10zm84-23 10-27-12-12-12-12v60l-12 13-13 14 15-5 15-5 9-26zm-34-12c0-8-4-15-10-15-5 0-10 7-10 15s5 15 10 15c6 0 10-7 10-15zm-96-50 5-15h-9c-6 0-10 7-10 15s2 15 4 15 6-7 10-15zm-4 930c0-8 4-15 10-15h9l-5 15c-4 8-8 15-10 15s-4-7-4-15zm0-47v-23l10 15c13 19 13 30 0 30h-10v-22zm685-125c-4-31-9-62-12-70l-5-13h32v70c0 39-2 70-4 70s-7-25-11-57zm-1164-55-1-27 10-6 10-6-1 13c0 7-4 22-9 33l-9 20v-27zm15-120c2-18 9-37 14-42l10-10 22 24 22 24-16-6-15-6-13 24c-8 13-17 24-20 24h-7l3-32zm1184-272-35-13-3-16c-2-8 2-33 8-55l10-40 13-4c6-3 34 2 61 10l48 14-5 31c-3 18-10 44-16 60l-11 27-17-1c-10 0-34-6-53-13zm68-46 10-40-36-10-36-10-7 8c-4 4-10 21-13 38l-7 31 33 10c18 6 36 11 39 12 4 1 11-17 17-39z"/></g></g></svg>